<svg xmlns="http://www.w3.org/2000/svg" viewBox="0 0 512 512" width="512" height="512"><defs><filter id="soft" x="-25%" y="-25%" width="150%" height="160%"><feDropShadow dx="0" dy="7" stdDeviation="7" flood-color="#7A6A45" flood-opacity="0.22"/></filter></defs><g transform="translate(256 260)" filter="url(#soft)"><g transform="scale(1.08)"><g transform="translate(0 4.5)"><g transform="rotate(0)"><path d="M -13 -11 C -31 -32, -56 -78, -58 -124 C -61 -162, -44 -196, -8 -202 C 30 -208, 58 -184, 60 -146 C 62 -112, 33 -47, 13 -15 L -13 -11 Z" fill="#8794D6"/></g><g transform="rotate(72)"><path d="M -13 -11 C -31 -32, -56 -78, -58 -124 C -61 -162, -44 -196, -8 -202 C 30 -208, 58 -184, 60 -146 C 62 -112, 33 -47, 13 -15 L -13 -11 Z" fill="#8794D6"/></g><g transform="rotate(144)"><path d="M -13 -11 C -31 -32, -56 -78, -58 -124 C -61 -162, -44 -196, -8 -202 C 30 -208, 58 -184, 60 -146 C 62 -112, 33 -47, 13 -15 L -13 -11 Z" fill="#8794D6"/></g><g transform="rotate(216)"><path d="M -13 -11 C -31 -32, -56 -78, -58 -124 C -61 -162, -44 -196, -8 -202 C 30 -208, 58 -184, 60 -146 C 62 -112, 33 -47, 13 -15 L -13 -11 Z" fill="#8794D6"/></g><g transform="rotate(288)"><path d="M -13 -11 C -31 -32, -56 -78, -58 -124 C -61 -162, -44 -196, -8 -202 C 30 -208, 58 -184, 60 -146 C 62 -112, 33 -47, 13 -15 L -13 -11 Z" fill="#8794D6"/></g></g><g transform="rotate(0)"><path d="M -13 -11 C -31 -32, -56 -78, -58 -124 C -61 -162, -44 -196, -8 -202 C 30 -208, 58 -184, 60 -146 C 62 -112, 33 -47, 13 -15 L -13 -11 Z" fill="#B7C5F1"/></g><g transform="rotate(72)"><path d="M -13 -11 C -31 -32, -56 -78, -58 -124 C -61 -162, -44 -196, -8 -202 C 30 -208, 58 -184, 60 -146 C 62 -112, 33 -47, 13 -15 L -13 -11 Z" fill="#B7C5F1"/></g><g transform="rotate(144)"><path d="M -13 -11 C -31 -32, -56 -78, -58 -124 C -61 -162, -44 -196, -8 -202 C 30 -208, 58 -184, 60 -146 C 62 -112, 33 -47, 13 -15 L -13 -11 Z" fill="#B7C5F1"/></g><g transform="rotate(216)"><path d="M -13 -11 C -31 -32, -56 -78, -58 -124 C -61 -162, -44 -196, -8 -202 C 30 -208, 58 -184, 60 -146 C 62 -112, 33 -47, 13 -15 L -13 -11 Z" fill="#B7C5F1"/></g><g transform="rotate(288)"><path d="M -13 -11 C -31 -32, -56 -78, -58 -124 C -61 -162, -44 -196, -8 -202 C 30 -208, 58 -184, 60 -146 C 62 -112, 33 -47, 13 -15 L -13 -11 Z" fill="#B7C5F1"/></g><g><path d="M 32.9 -45.3 L 24.7 -8.0 L 53.3 17.3 L 15.3 21.0 L 0.0 56.0 L -15.3 21.0 L -53.3 17.3 L -24.7 -8.0 L -32.9 -45.3 L -0.0 -26.0 Z" transform="translate(0 4)" fill="#E2D8BE"/><path d="M 32.9 -45.3 L 24.7 -8.0 L 53.3 17.3 L 15.3 21.0 L 0.0 56.0 L -15.3 21.0 L -53.3 17.3 L -24.7 -8.0 L -32.9 -45.3 L -0.0 -26.0 Z" fill="#FDFAF1"/></g><g><path d="M 10.6 -14.6 L 17.1 5.6 L 0.0 18.0 L -17.1 5.6 L -10.6 -14.6 Z" transform="translate(0 3)" fill="#D9B25E"/><path d="M 10.6 -14.6 L 17.1 5.6 L 0.0 18.0 L -17.1 5.6 L -10.6 -14.6 Z" fill="#F5D488"/></g></g></g></svg>